<?xml version="1.0" standalone="no"?>
<!DOCTYPE svg PUBLIC "-//W3C//DTD SVG 20010904//EN"
 "http://www.w3.org/TR/2001/REC-SVG-20010904/DTD/svg10.dtd">
<svg version="1.0" xmlns="http://www.w3.org/2000/svg"
 width="640.000000pt" height="640.000000pt" viewBox="0 0 640.000000 640.000000"
 preserveAspectRatio="xMidYMid meet">

<g transform="translate(0.000000,640.000000) scale(0.100000,-0.100000)"
fill="#000000" stroke="none">
<path d="M2933 3961 c-125 -7 -145 -17 -163 -80 -14 -50 -13 -1263 1 -1314 7
-26 21 -44 42 -57 30 -19 52 -20 324 -20 311 0 329 2 360 49 17 24 18 74 21
667 2 499 0 649 -10 679 -22 66 -44 72 -268 78 -107 2 -245 2 -307 -2z m375
-733 l2 -528 -170 0 -170 0 0 523 c0 288 3 527 7 531 4 3 79 5 167 4 l161 -3
3 -527z"/>
<path d="M1218 2091 c-120 -39 -226 -132 -281 -249 -30 -64 -32 -73 -32 -188
0 -118 1 -121 37 -195 47 -95 130 -177 224 -221 54 -25 82 -32 158 -36 141 -7
243 29 343 121 l43 40 49 -46 c115 -108 287 -145 443 -97 117 36 228 131 279
237 41 85 51 225 25 317 -40 137 -118 231 -242 293 -64 31 -85 36 -167 41
-142 7 -244 -29 -344 -121 l-43 -39 -46 41 c-25 22 -65 52 -89 66 -95 55 -248
70 -357 36z m237 -207 c94 -43 149 -128 148 -229 0 -101 -41 -169 -133 -223
-59 -35 -164 -37 -225 -5 -113 60 -165 178 -131 297 42 145 206 221 341 160z
m684 10 c17 -3 48 -18 70 -35 154 -111 139 -329 -28 -427 -38 -22 -57 -26
-116 -26 -83 0 -133 22 -188 83 -127 141 -51 373 135 410 41 9 63 8 127 -5z"/>
<path d="M4008 2091 c-173 -55 -296 -201 -318 -375 -5 -42 -8 -81 -5 -88 2 -7
6 -37 9 -67 14 -149 171 -312 337 -350 128 -30 276 -1 376 72 114 85 167 169
185 298 35 235 -106 456 -327 515 -70 19 -189 17 -257 -5z m229 -207 c136 -55
194 -214 125 -345 -20 -40 -43 -65 -85 -94 -54 -37 -62 -39 -130 -39 -55 0
-82 5 -113 21 -49 26 -99 73 -120 115 -22 43 -29 129 -14 183 14 50 76 127
122 151 63 33 147 36 215 8z"/>
</g>
</svg>
